<svg id="Layer_1" enable-background="new 0 0 512 512" viewBox="0 0 512 512" xmlns="http://www.w3.org/2000/svg"><g clip-rule="evenodd" fill-rule="evenodd"><g><path d="m389.377 503h-308.477c-12.012 0-21.81-9.798-21.81-21.81v-318.522c0-6.006 2.141-11.175 6.388-15.422l100.308-100.309c4.247-4.247 9.416-6.388 15.422-6.388h208.169c12.013 0 21.81 9.798 21.81 21.81v418.831c.001 12.012-9.797 21.81-21.81 21.81z" fill="#e2e3e3"/><path d="m357.829 471.452h-308.477c-12.013 0-21.811-9.798-21.811-21.81v-318.523c0-6.006 2.141-11.175 6.388-15.422l100.308-100.309c4.247-4.247 9.416-6.388 15.423-6.388h208.169c12.012 0 21.81 9.798 21.81 21.81v418.831c0 12.013-9.798 21.811-21.81 21.811z" fill="#eff4f7"/><path d="m134.237 15.388-100.308 100.309c-1.94 1.94-3.44 4.072-4.498 6.388h91.501c10.845 0 19.692-8.845 19.692-19.693v-91.501c-2.315 1.057-4.447 2.557-6.387 4.497z" fill="#e2e3e3"/><path d="m79.482 174.505c-4.418 0-8-3.582-8-8s3.582-8 8-8h248.216c4.418 0 8 3.582 8 8s-3.582 8-8 8zm0 54.851c-4.418 0-8-3.582-8-8s3.582-8 8-8h248.216c4.418 0 8 3.582 8 8s-3.582 8-8 8zm110.004-164.553c-4.418 0-8-3.582-8-8s3.582-8 8-8h138.212c4.418 0 8 3.582 8 8s-3.582 8-8 8zm0 54.851c-4.418 0-8-3.582-8-8s3.582-8 8-8h138.212c4.418 0 8 3.582 8 8s-3.582 8-8 8z" fill="#8d9ca8"/></g><g><path d="m63.425 393.833v-57.887l24.006-68.068c1.023-2.902 3.642-4.755 6.719-4.755h127.301c2.265 0 4.213.949 5.609 2.732l54.887 70.091h36.375c14.008 0 25.433 11.425 25.433 25.433v32.454c0 2.497-2.036 4.533-4.534 4.533h-271.262c-2.497 0-4.534-2.036-4.534-4.533z" fill="#ffda2d"/><path d="m157.156 335.946v-65.288h-62.715l-23.026 65.288z" fill="#e6f8ff"/><path d="m164.691 270.658v65.288h107.685c-15.075-19.251-36.051-46.037-51.125-65.288-17.598 0-38.963 0-56.56 0z" fill="#e6f8ff"/><path d="m192.103 353.438c3.699 0 6.698 2.999 6.698 6.699 0 3.699-2.999 6.698-6.698 6.698h-10.396c-3.699 0-6.699-2.999-6.699-6.698s2.999-6.699 6.699-6.699z" fill="#fdb800"/><path d="m284.658 373.936c13.492 0 24.43 10.938 24.43 24.43 0 13.493-10.938 24.43-24.43 24.43-13.493 0-24.43-10.938-24.43-24.43s10.938-24.43 24.43-24.43zm-162.137 0c13.493 0 24.43 10.938 24.43 24.43 0 13.493-10.938 24.43-24.43 24.43s-24.43-10.938-24.43-24.43 10.938-24.43 24.43-24.43z" fill="#3a484a"/><path d="m284.658 387.333c-6.098 0-11.034 4.936-11.034 11.033s4.935 11.034 11.034 11.034c6.098 0 11.034-4.936 11.034-11.034 0-6.097-4.936-11.033-11.034-11.033zm-162.137 0c-6.098 0-11.033 4.936-11.033 11.033s4.935 11.034 11.033 11.034 11.034-4.936 11.034-11.034-4.936-11.033-11.034-11.033z" fill="#465759"/></g><g><path d="m484.459 110.09c-79.343-47.073-130.297-47.074-209.64 0v90.469c0 30.439 13.084 55.961 37.802 73.726l67.018 48.167 67.016-48.167c24.718-17.766 37.804-43.286 37.804-73.726z" fill="#3cbe52"/><path d="m458.46 125.177c-59.324-32.465-98.318-32.466-157.642 0v75.382c0 22.065 9.058 39.737 26.976 52.614l51.845 37.261 51.842-37.261c17.918-12.878 26.979-30.548 26.979-52.614z" fill="#72d561"/><path d="m411.269 145.091c4.685-4.685 12.281-4.685 16.966 0 4.684 4.685 4.684 12.281 0 16.966l-57.76 57.76c-5.306 5.306-14.071 4.472-18.33-1.627l-24.896-31.33c-4.115-5.177-3.255-12.71 1.922-16.825s12.71-3.255 16.825 1.921l17.007 21.402z" fill="#eff4f7"/></g></g></svg>