<svg id="Capa_1" enable-background="new 0 0 508.837 508.837" height="512" viewBox="0 0 508.837 508.837" width="512" xmlns="http://www.w3.org/2000/svg"><g><g><path d="m14.419 254.418c0 44.416 24.133 83.193 60 103.942l43-72.442 17-76.5 10-30-10-45c-66.275 0-120 53.726-120 120z" fill="#565686"/><path d="m134.419 134.418v75l18.75 75 41.25 73.942c35.867-20.749 60-59.526 60-103.942 0-66.274-53.726-120-120-120z" fill="#454572"/><path d="m109.444 274.866c-20.651 9.493-35.025 30.376-35.025 54.553v28.942c17.65 10.211 38.143 16.058 60 16.058l10-49.793-10-40.207z" fill="#fdd82e"/><path d="m159.408 274.835-24.989 9.584v90c21.858 0 42.35-5.847 60-16.058v-28.942c0-24.932-15.024-45.422-35.011-54.584z" fill="#fbbd00"/><path d="m96.919 246.918c0 20.678 16.822 37.5 37.5 37.5l10-37.5-10-37.5c-20.678 0-37.5 16.823-37.5 37.5z" fill="#ffdbcc"/><path d="m134.419 209.418v75c20.678 0 37.5-16.822 37.5-37.5 0-20.677-16.823-37.5-37.5-37.5z" fill="#fdbba7"/></g><g><path d="m254.419 254.418c0 44.416 24.133 83.193 60 103.942l43-72.442 17-76.5 10-30-10-45c-66.275 0-120 53.726-120 120z" fill="#565686"/><path d="m374.419 134.418v75l18.75 75 41.25 73.942c35.867-20.749 60-59.526 60-103.942 0-66.274-53.726-120-120-120z" fill="#454572"/><path d="m349.444 274.866c-20.651 9.493-35.025 30.376-35.025 54.553v28.942c17.65 10.211 38.143 16.058 60 16.058l10-49.793-10-40.207z" fill="#bde55e"/><path d="m399.408 274.835-24.989 9.584v90c21.858 0 42.35-5.847 60-16.058v-28.942c0-24.932-15.024-45.422-35.011-54.584z" fill="#5ac77f"/><path d="m336.919 246.918c0 20.678 16.822 37.5 37.5 37.5l10-37.5-10-37.5c-20.678 0-37.5 16.823-37.5 37.5z" fill="#ffdbcc"/><path d="m374.419 209.418v75c20.678 0 37.5-16.822 37.5-37.5 0-20.677-16.823-37.5-37.5-37.5z" fill="#fdbba7"/></g><path d="m157.536 451.952 21.938-3.747-5.051-29.572-73.21 12.506 18.811 75.974 29.121-7.211-5.261-21.244c33.45 19.312 71.545 29.845 110.535 30.171l15-14.409-15-15.472c-33.549-.363-67.017-9.37-96.883-26.996z" fill="#7ce2f8"/><path d="m254.419 478.947v29.881c52.134.478 103.56-17.355 144.262-50.642l-18.992-23.223c-36.484 29.839-80.947 44.46-125.27 43.984z" fill="#47c8e4"/><path d="m110.157 50.651 18.992 23.223c36.483-29.838 80.947-44.459 125.27-43.982l15-15.473-15-14.409c-52.134-.479-103.561 17.354-144.262 50.641z" fill="#7ce2f8"/><path d="m329.364 60.633 5.051 29.57 73.21-12.505-18.811-75.973-29.121 7.21 5.261 21.245c-33.45-19.312-71.544-29.845-110.535-30.171v29.882c33.549.361 67.017 9.369 96.882 26.994z" fill="#47c8e4"/></g></svg>