<svg height="512" viewBox="0 0 64 64" width="512" xmlns="http://www.w3.org/2000/svg"><g id="Layer_16" data-name="Layer 16"><path d="m53 46v-44h-36a6 6 0 0 0 -6 6v44a6 6 0 0 0 6 6h36l-1.106-2.211a8.476 8.476 0 0 1 0-7.578z" fill="#559b38"/><path d="m17 2a6 6 0 0 0 -6 6v34h35a4 4 0 0 0 4-4v-36z" fill="#6bc148"/><path d="m53 46-1.106 2.211a8.478 8.478 0 0 0 -.894 3.789 8.478 8.478 0 0 0 .894 3.789l1.106 2.211h-36a6 6 0 0 1 -6-6 6 6 0 0 1 6-6z" fill="#e0e0e0"/><path d="m18 2h2v44h-2z" fill="#7cdf54"/><path d="m53 46-1.106 2.211a8.478 8.478 0 0 0 -.894 3.789 8.478 8.478 0 0 0 .894 3.789l1.106 2.211h-36a6 6 0 0 1 -6-6 6 6 0 0 1 6-6z" fill="#e0e0e0"/><path d="m51.243 50h-34.243a2 2 0 0 0 0 4h34.243a8.352 8.352 0 0 1 0-4z" fill="#bdbdbd"/><path d="m23 8h26v24h-26z" fill="#bdbdbd"/><path d="m23 8v22h20a4 4 0 0 0 4-4v-18z" fill="#e0e0e0"/><rect fill="#fff" height="16" rx="2" width="17" x="26" y="11"/><g fill="#7cdf54"><path d="m22 35h28v2h-28z"/><path d="m22 39h24v2h-24z"/><path d="m48 39h2v2h-2z"/></g><path d="m37 50v12l4-4 4 4v-12z" fill="#eeab46"/><path d="m37 50v12l4-4v-8z" fill="#f3c14f"/><path d="m26 18h4v6h-4z" fill="#559b38"/><path d="m27 14h2v4h-2z" fill="#bdbdbd"/><path d="m27 24h2v4h-2z" fill="#bdbdbd"/><path d="m26 18v5h1a2 2 0 0 0 2-2v-3z" fill="#6bc148"/><path d="m34 15h4v6h-4z" fill="#559b38"/><path d="m35 11h2v4h-2z" fill="#bdbdbd"/><path d="m35 21h2v6h-2z" fill="#bdbdbd"/><path d="m34 15v5h1a2 2 0 0 0 2-2v-3z" fill="#6bc148"/><path d="m42 19h4v6h-4z" fill="#559b38"/><path d="m43 15h2v4h-2z" fill="#bdbdbd"/><path d="m43 25h2v2h-2z" fill="#bdbdbd"/><path d="m42 19v5h1a2 2 0 0 0 2-2v-3z" fill="#6bc148"/></g></svg>