<svg id="Capa_1" enable-background="new 0 0 511.995 511.995" height="512" viewBox="0 0 511.995 511.995" width="512" xmlns="http://www.w3.org/2000/svg"><g><path d="m157.806 0h204.154c9.28 0 16.803 6.146 16.803 13.727v37.766c0 7.581-7.523 13.727-16.803 13.727h-25.587l-34.139 18.299h-109.63l-34.798-18.299c-9.28 0-16.803-6.146-16.803-13.727v-37.766c0-7.581 7.523-13.727 16.803-13.727z" fill="#fabe2c"/><path d="m361.96 0h-105.963v65.22l10 18.3h36.237l34.139-18.299h25.587c9.28 0 16.803-6.146 16.803-13.727v-37.767c0-7.581-7.523-13.727-16.803-13.727z" fill="#ff9100"/><path d="m132.218 65.22h204.154c9.28 0 16.803 6.146 16.803 13.727v37.766c0 7.581-7.523 13.727-16.803 13.727l-25.735 9.149h-126.436l-26.396-9.149h-25.587c-9.28 0-16.803-6.146-16.803-13.727v-37.765c.001-7.582 7.524-13.728 16.803-13.728z" fill="#ffe666"/><path d="m336.373 65.22h-80.376v65.22l10 9.149h44.641l25.735-9.149c9.28 0 16.803-6.146 16.803-13.727v-37.765c0-7.582-7.523-13.728-16.803-13.728z" fill="#fabe2c"/><path d="m156.006 130.441h207.753c8.286 0 15.003 6.717 15.003 15.003v35.214c0 8.286-6.717 15.003-15.003 15.003l-103.877 20-103.877-20c-8.286 0-15.003-6.717-15.003-15.003v-35.214c.001-8.286 6.718-15.003 15.004-15.003z" fill="#fabe2c"/><path d="m363.759 130.441h-107.762v65.221l3.886 20 103.876-20c8.286 0 15.003-6.717 15.003-15.003v-35.214c.001-8.287-6.716-15.004-15.003-15.004z" fill="#ff9100"/><path d="m420.855 195.662h-327.797c-7.909 0-14.321 6.412-14.321 14.321v73.617c0 7.909 6.412 14.321 14.321 14.321s14.321-6.412 14.321-14.321v-59.296h134.298v59.296c0 7.909 6.412 14.321 14.321 14.321s14.321-6.412 14.321-14.321v-59.296h136.216v59.296c0 7.909 6.412 14.321 14.321 14.321s14.321-6.412 14.321-14.321v-73.617c-.001-7.91-6.413-14.321-14.322-14.321z" fill="#5c7099"/><path d="m174.528 444.303c0-39.775-30.279-72.474-69.044-76.315 22.1-5.564 38.477-25.748 38.477-49.805 0-28.35-22.741-51.333-50.793-51.333s-50.793 22.982-50.793 51.333c0 24.037 16.35 44.209 38.423 49.792-38.844 3.764-69.21 36.496-69.21 76.327v53.373c0 7.908 6.411 14.319 14.319 14.319h168.621z" fill="#9ee2f8"/><path d="m420.855 195.662h-164.858v71.187l14.321 16.75v-59.296h136.216v59.296c0 7.909 6.412 14.321 14.321 14.321s14.321-6.412 14.321-14.321v-73.617c0-7.909-6.411-14.32-14.321-14.32z" fill="#404a80"/><path d="m431.364 367.989c22.1-5.564 38.477-25.748 38.477-49.805 0-28.35-22.741-51.333-50.793-51.333s-50.793 22.982-50.793 51.333c0 24.037 16.351 44.209 38.423 49.792-38.844 3.764-69.21 36.496-69.21 76.327l-20 67.692h168.622c7.908 0 14.319-6.411 14.319-14.319v-53.373c-.001-39.775-30.28-72.474-69.045-76.314z" fill="#e62e6b"/><path d="m267.247 368.263c22.692-5.134 39.654-25.598 39.654-50.079 0-28.35-22.741-51.333-50.793-51.333s-50.793 22.982-50.793 51.333c0 24.453 16.924 44.898 39.576 50.061-39.659 4.913-70.364 38.707-70.364 79.696v64.055h162.94v-64.056c.001-40.939-30.63-74.7-70.22-79.677z" fill="#00dd80"/><path d="m267.247 368.263c22.692-5.134 39.654-25.598 39.654-50.079 0-28.387-22.799-51.392-50.901-51.333-.001.001-.002.002-.003.003v245.141h81.471v-64.055c0-40.939-30.631-74.7-70.221-79.677z" fill="#00aa95"/></g></svg>