<svg height="512" viewBox="0 0 512 512" width="512" xmlns="http://www.w3.org/2000/svg"><path d="m289 261h290a0 0 0 0 1 0 0v90a0 0 0 0 1 0 0h-290a10 10 0 0 1 -10-10v-70a10 10 0 0 1 10-10z" fill="#f4644d" transform="matrix(0 1 -1 0 735 -123)"/><path d="m28 346h120a0 0 0 0 1 0 0v90a0 0 0 0 1 0 0h-120a10 10 0 0 1 -10-10v-70a10 10 0 0 1 10-10z" fill="#54c1ed" transform="matrix(0 1 -1 0 474 308)"/><path d="m218.667 306h200a0 0 0 0 1 0 0v90a0 0 0 0 1 0 0h-200a10 10 0 0 1 -10-10v-70a10 10 0 0 1 10-10z" fill="#ffc443" transform="matrix(0 1 -1 0 664.667 37.333)"/><path d="m78.333 281h250a0 0 0 0 1 0 0v90a0 0 0 0 1 0 0h-250a10 10 0 0 1 -10-10v-70a10 10 0 0 1 10-10z" fill="#8bc932" transform="matrix(0 1 -1 0 524.333 127.667)"/><g fill="#84828e"><path d="m486.5 471h-461a7.5 7.5 0 0 1 0-15h461a7.5 7.5 0 0 1 0 15z"/><path d="m332.01 158.018a7.5 7.5 0 0 1 -4.738-13.318l83.118-67.622a7.5 7.5 0 0 1 9.467 11.635l-83.118 67.623a7.472 7.472 0 0 1 -4.729 1.682z"/><path d="m94.845 229.889a7.5 7.5 0 0 1 -5.588-12.5l89.272-99.821a7.5 7.5 0 1 1 11.181 10l-89.272 99.821a7.482 7.482 0 0 1 -5.593 2.5z"/><path d="m295.322 158.02a7.473 7.473 0 0 1 -3.239-.74l-77.578-37.216a7.5 7.5 0 0 1 6.488-13.525l77.579 37.217a7.5 7.5 0 0 1 -3.25 14.264z"/></g><circle cx="83" cy="238.5" fill="#54c1ed" r="20"/><circle cx="198.333" cy="108.5" fill="#8bc932" r="20"/><circle cx="429" cy="68.5" fill="#f4644d" r="20"/><circle cx="313.667" cy="158.5" fill="#ffc443" r="20"/><path d="m68 326v130h-30v-120a10 10 0 0 1 10-10z" fill="#17afde"/><path d="m173.33 196v260h-20v-250a10 10 0 0 1 10-10z" fill="#80b524"/><path d="m288.67 246v210h-20v-200a10 10 0 0 1 10-10z" fill="#fcb830"/><path d="m404 156v300h-20v-290a10 10 0 0 1 10-10z" fill="#e8533a"/></svg>